<svg width="575" height="128" viewBox="0 0 575 128" fill="none" xmlns="http://www.w3.org/2000/svg">
<path d="M24.7845 73.7479C24.7845 80.401 10 80.401 10 73.7479V5C18.8707 5 24.7845 16.0884 49.9182 16.0884C75.0518 16.0884 79.4872 4.99971 88.3579 5V73.7479C88.3579 80.401 73.5734 80.401 73.5734 73.7479V33.8298C73.5734 20.5237 58.7889 20.5237 58.7889 33.8298V73.7479C58.7889 80.401 39.569 80.401 39.569 73.7479V33.8298C39.569 20.5237 24.7845 20.5237 24.7845 33.8298V73.7479Z" fill="#28292C"/>
<path d="M73.5732 101.099V42.7006C73.5732 34.5691 88.3577 34.5694 88.3577 42.7006V101.099C88.3577 130.669 39.5688 129.929 39.5688 101.099L39.5688 78.3582C39.5676 78.3004 39.5676 78.2421 39.5688 78.1834L39.5688 78.3582C39.7223 85.4819 58.681 86.113 58.7887 78.1834V101.099C58.7887 108.492 73.5732 108.492 73.5732 101.099Z" fill="#D72323"/>
<path d="M113.67 87V42.2H122.246L141.318 73.816H136.774L155.526 42.2H164.038L164.166 87H154.438L154.374 57.112H156.166L141.19 82.264H136.518L121.222 57.112H123.398V87H113.67ZM195.211 87V80.28L194.571 78.808V66.776C194.571 64.6427 193.91 62.9787 192.587 61.784C191.307 60.5893 189.323 59.992 186.635 59.992C184.8 59.992 182.987 60.2907 181.195 60.888C179.446 61.4427 177.952 62.2107 176.715 63.192L173.131 56.216C175.008 54.8933 177.27 53.8693 179.915 53.144C182.56 52.4187 185.248 52.056 187.979 52.056C193.227 52.056 197.302 53.2933 200.203 55.768C203.104 58.2427 204.555 62.104 204.555 67.352V87H195.211ZM184.715 87.512C182.027 87.512 179.723 87.064 177.803 86.168C175.883 85.2293 174.411 83.9707 173.387 82.392C172.363 80.8133 171.851 79.0427 171.851 77.08C171.851 75.032 172.342 73.24 173.323 71.704C174.347 70.168 175.947 68.9733 178.123 68.12C180.299 67.224 183.136 66.776 186.635 66.776H195.787V72.6H187.723C185.376 72.6 183.755 72.984 182.859 73.752C182.006 74.52 181.579 75.48 181.579 76.632C181.579 77.912 182.07 78.936 183.051 79.704C184.075 80.4293 185.462 80.792 187.211 80.792C188.875 80.792 190.368 80.408 191.691 79.64C193.014 78.8293 193.974 77.656 194.571 76.12L196.107 80.728C195.382 82.9467 194.059 84.632 192.139 85.784C190.219 86.936 187.744 87.512 184.715 87.512ZM217.318 99.928C215.526 99.928 213.755 99.6507 212.006 99.096C210.257 98.5413 208.827 97.7733 207.718 96.792L211.366 89.688C212.134 90.3707 213.009 90.904 213.99 91.288C215.014 91.672 216.017 91.864 216.998 91.864C218.406 91.864 219.515 91.5227 220.326 90.84C221.179 90.2 221.947 89.112 222.63 87.576L224.422 83.352L225.19 82.264L237.542 52.568H247.142L231.59 89.112C230.481 91.8853 229.201 94.0613 227.75 95.64C226.342 97.2187 224.763 98.328 223.014 98.968C221.307 99.608 219.409 99.928 217.318 99.928ZM223.206 88.344L207.846 52.568H218.15L230.054 81.368L223.206 88.344ZM266.918 87.512C263.206 87.512 259.9 86.7653 256.998 85.272C254.097 83.736 251.814 81.624 250.15 78.936C248.529 76.248 247.718 73.1973 247.718 69.784C247.718 66.328 248.529 63.2773 250.15 60.632C251.814 57.944 254.097 55.8533 256.998 54.36C259.9 52.824 263.206 52.056 266.918 52.056C270.545 52.056 273.702 52.824 276.39 54.36C279.078 55.8533 281.062 58.008 282.342 60.824L274.598 64.984C273.702 63.3627 272.572 62.168 271.206 61.4C269.884 60.632 268.433 60.248 266.854 60.248C265.148 60.248 263.612 60.632 262.246 61.4C260.881 62.168 259.793 63.256 258.982 64.664C258.214 66.072 257.83 67.7787 257.83 69.784C257.83 71.7893 258.214 73.496 258.982 74.904C259.793 76.312 260.881 77.4 262.246 78.168C263.612 78.936 265.148 79.32 266.854 79.32C268.433 79.32 269.884 78.9573 271.206 78.232C272.572 77.464 273.702 76.248 274.598 74.584L282.342 78.808C281.062 81.5813 279.078 83.736 276.39 85.272C273.702 86.7653 270.545 87.512 266.918 87.512ZM304.037 87.512C300.368 87.512 297.104 86.744 294.245 85.208C291.429 83.672 289.189 81.5813 287.525 78.936C285.904 76.248 285.093 73.1973 285.093 69.784C285.093 66.328 285.904 63.2773 287.525 60.632C289.189 57.944 291.429 55.8533 294.245 54.36C297.104 52.824 300.368 52.056 304.037 52.056C307.664 52.056 310.907 52.824 313.765 54.36C316.624 55.8533 318.864 57.9227 320.485 60.568C322.107 63.2133 322.917 66.2853 322.917 69.784C322.917 73.1973 322.107 76.248 320.485 78.936C318.864 81.5813 316.624 83.672 313.765 85.208C310.907 86.744 307.664 87.512 304.037 87.512ZM304.037 79.32C305.701 79.32 307.195 78.936 308.517 78.168C309.84 77.4 310.885 76.312 311.653 74.904C312.421 73.4533 312.805 71.7467 312.805 69.784C312.805 67.7787 312.421 66.072 311.653 64.664C310.885 63.256 309.84 62.168 308.517 61.4C307.195 60.632 305.701 60.248 304.037 60.248C302.373 60.248 300.88 60.632 299.557 61.4C298.235 62.168 297.168 63.256 296.357 64.664C295.589 66.072 295.205 67.7787 295.205 69.784C295.205 71.7467 295.589 73.4533 296.357 74.904C297.168 76.312 298.235 77.4 299.557 78.168C300.88 78.936 302.373 79.32 304.037 79.32ZM350.519 52.056C353.25 52.056 355.682 52.6107 357.815 53.72C359.991 54.7867 361.698 56.4507 362.935 58.712C364.172 60.9307 364.791 63.7893 364.791 67.288V87H354.807V68.824C354.807 66.0507 354.188 64.0027 352.951 62.68C351.756 61.3573 350.05 60.696 347.831 60.696C346.252 60.696 344.823 61.0373 343.543 61.72C342.306 62.36 341.324 63.3627 340.599 64.728C339.916 66.0933 339.575 67.8427 339.575 69.976V87H329.591V52.568H339.127V62.104L337.335 59.224C338.572 56.92 340.343 55.1493 342.647 53.912C344.951 52.6747 347.575 52.056 350.519 52.056ZM399.454 87.384C396.937 87.384 394.569 86.8293 392.35 85.72C390.174 84.6107 388.425 83.032 387.102 80.984L389.854 77.784C391.091 79.576 392.521 80.9413 394.142 81.88C395.763 82.8187 397.555 83.288 399.518 83.288C405.065 83.288 407.838 80.0027 407.838 73.432V46.296H391.454V42.2H412.51V73.24C412.51 77.976 411.401 81.5173 409.182 83.864C407.006 86.2107 403.763 87.384 399.454 87.384ZM440.028 87.32C436.53 87.32 433.458 86.5947 430.812 85.144C428.167 83.6507 426.098 81.624 424.604 79.064C423.111 76.4613 422.364 73.496 422.364 70.168C422.364 66.84 423.068 63.896 424.476 61.336C425.927 58.776 427.89 56.7707 430.364 55.32C432.882 53.8267 435.698 53.08 438.812 53.08C441.97 53.08 444.764 53.8053 447.196 55.256C449.671 56.664 451.612 58.6693 453.02 61.272C454.428 63.832 455.132 66.7973 455.132 70.168C455.132 70.3813 455.111 70.616 455.068 70.872C455.068 71.0853 455.068 71.32 455.068 71.576H425.82V68.184H452.636L450.844 69.528C450.844 67.096 450.311 64.9413 449.244 63.064C448.22 61.144 446.812 59.6507 445.02 58.584C443.228 57.5173 441.159 56.984 438.812 56.984C436.508 56.984 434.439 57.5173 432.604 58.584C430.77 59.6507 429.34 61.144 428.316 63.064C427.292 64.984 426.78 67.1813 426.78 69.656V70.36C426.78 72.92 427.335 75.1813 428.444 77.144C429.596 79.064 431.175 80.5787 433.18 81.688C435.228 82.7547 437.554 83.288 440.156 83.288C442.204 83.288 444.103 82.9253 445.852 82.2C447.644 81.4747 449.18 80.3653 450.46 78.872L453.02 81.816C451.527 83.608 449.65 84.9733 447.388 85.912C445.17 86.8507 442.716 87.32 440.028 87.32ZM473.405 87.32C470.632 87.32 468.008 86.936 465.533 86.168C463.059 85.3573 461.117 84.3547 459.709 83.16L461.757 79.576C463.123 80.6 464.872 81.496 467.005 82.264C469.139 82.9893 471.379 83.352 473.725 83.352C476.925 83.352 479.229 82.8613 480.637 81.88C482.045 80.856 482.749 79.512 482.749 77.848C482.749 76.6107 482.344 75.6507 481.533 74.968C480.765 74.2427 479.741 73.7093 478.461 73.368C477.181 72.984 475.752 72.664 474.173 72.408C472.595 72.152 471.016 71.8533 469.437 71.512C467.901 71.1707 466.493 70.68 465.213 70.04C463.933 69.3573 462.888 68.44 462.077 67.288C461.309 66.136 460.925 64.6 460.925 62.68C460.925 60.8453 461.437 59.2027 462.461 57.752C463.485 56.3013 464.979 55.1707 466.941 54.36C468.947 53.5067 471.379 53.08 474.237 53.08C476.413 53.08 478.589 53.3787 480.765 53.976C482.941 54.5307 484.733 55.2773 486.141 56.216L484.157 59.864C482.664 58.84 481.064 58.1147 479.357 57.688C477.651 57.2187 475.944 56.984 474.237 56.984C471.208 56.984 468.968 57.5173 467.517 58.584C466.109 59.608 465.405 60.9307 465.405 62.552C465.405 63.832 465.789 64.8347 466.557 65.56C467.368 66.2853 468.413 66.8613 469.693 67.288C471.016 67.672 472.445 67.992 473.981 68.248C475.56 68.504 477.117 68.824 478.653 69.208C480.232 69.5493 481.661 70.04 482.941 70.68C484.264 71.2773 485.309 72.152 486.077 73.304C486.888 74.4133 487.293 75.8853 487.293 77.72C487.293 79.6827 486.739 81.3893 485.629 82.84C484.563 84.248 482.984 85.3573 480.893 86.168C478.845 86.936 476.349 87.32 473.405 87.32ZM509.519 87.32C506.661 87.32 504.165 86.7867 502.031 85.72C499.898 84.6533 498.234 83.0533 497.039 80.92C495.887 78.7867 495.311 76.12 495.311 72.92V53.4H499.855V72.408C499.855 75.992 500.73 78.7013 502.479 80.536C504.271 82.328 506.767 83.224 509.967 83.224C512.314 83.224 514.341 82.7547 516.047 81.816C517.797 80.8347 519.119 79.4267 520.015 77.592C520.954 75.7573 521.423 73.56 521.423 71V53.4H525.967V87H521.615V77.784L522.319 79.448C521.253 81.9227 519.589 83.864 517.327 85.272C515.109 86.6373 512.506 87.32 509.519 87.32ZM547.655 87.32C544.882 87.32 542.258 86.936 539.783 86.168C537.309 85.3573 535.367 84.3547 533.959 83.16L536.007 79.576C537.373 80.6 539.122 81.496 541.255 82.264C543.389 82.9893 545.629 83.352 547.975 83.352C551.175 83.352 553.479 82.8613 554.887 81.88C556.295 80.856 556.999 79.512 556.999 77.848C556.999 76.6107 556.594 75.6507 555.783 74.968C555.015 74.2427 553.991 73.7093 552.711 73.368C551.431 72.984 550.002 72.664 548.423 72.408C546.845 72.152 545.266 71.8533 543.687 71.512C542.151 71.1707 540.743 70.68 539.463 70.04C538.183 69.3573 537.138 68.44 536.327 67.288C535.559 66.136 535.175 64.6 535.175 62.68C535.175 60.8453 535.687 59.2027 536.711 57.752C537.735 56.3013 539.229 55.1707 541.191 54.36C543.197 53.5067 545.629 53.08 548.487 53.08C550.663 53.08 552.839 53.3787 555.015 53.976C557.191 54.5307 558.983 55.2773 560.391 56.216L558.407 59.864C556.914 58.84 555.314 58.1147 553.607 57.688C551.901 57.2187 550.194 56.984 548.487 56.984C545.458 56.984 543.218 57.5173 541.767 58.584C540.359 59.608 539.655 60.9307 539.655 62.552C539.655 63.832 540.039 64.8347 540.807 65.56C541.618 66.2853 542.663 66.8613 543.943 67.288C545.266 67.672 546.695 67.992 548.231 68.248C549.81 68.504 551.367 68.824 552.903 69.208C554.482 69.5493 555.911 70.04 557.191 70.68C558.514 71.2773 559.559 72.152 560.327 73.304C561.138 74.4133 561.543 75.8853 561.543 77.72C561.543 79.6827 560.989 81.3893 559.879 82.84C558.813 84.248 557.234 85.3573 555.143 86.168C553.095 86.936 550.599 87.32 547.655 87.32Z" fill="#28292C"/>
</svg>
