<svg width="79" height="118" viewBox="0 0 79 118" fill="none" xmlns="http://www.w3.org/2000/svg">
<path d="M14.7845 68.7479C14.7845 75.401 2.83424e-05 75.401 0 68.7479V0C8.8707 5.68858e-09 14.7845 11.0884 39.9182 11.0884C65.0518 11.0884 69.4872 -0.000290005 78.3579 0V68.7479C78.3579 75.401 63.5734 75.401 63.5734 68.7479V28.8298C63.5734 15.5237 48.7889 15.5237 48.7889 28.8298V68.7479C48.7889 75.401 29.569 75.401 29.569 68.7479V28.8298C29.569 15.5237 14.7845 15.5237 14.7845 28.8298V68.7479Z" fill="#28292C"/>
<path d="M63.5732 96.0994V37.7006C63.5732 29.5692 78.3577 29.5694 78.3577 37.7006V96.0994C78.3577 125.669 29.5689 124.929 29.5689 96.0994L29.5689 73.3582C29.5676 73.3004 29.5676 73.2421 29.5689 73.1834L29.5689 73.3582C29.7224 80.4819 48.6811 81.113 48.7887 73.1834V96.0994C48.7887 103.492 63.5732 103.492 63.5732 96.0994Z" fill="#D72323"/>
</svg>
