<?xml version="1.0" standalone="no"?>
<!DOCTYPE svg PUBLIC "-//W3C//DTD SVG 20010904//EN"
 "http://www.w3.org/TR/2001/REC-SVG-20010904/DTD/svg10.dtd">
<svg version="1.0" xmlns="http://www.w3.org/2000/svg"
 width="1000.000000pt" height="1000.000000pt" viewBox="0 0 1000.000000 1000.000000"
 preserveAspectRatio="xMidYMid meet">
<metadata>
Created by potrace 1.14, written by Peter Selinger 2001-2017
</metadata>
<g transform="translate(0.000000,1000.000000) scale(0.100000,-0.100000)"
fill="#000000" stroke="none">
<path d="M2512 6529 l3 -2224 27 -46 c91 -154 338 -229 588 -179 140 28 234
87 288 179 l27 46 2 510 c2 281 4 902 6 1380 2 479 6 884 10 900 51 206 131
330 261 404 67 39 93 44 201 45 128 0 185 -24 282 -119 56 -55 81 -89 107
-146 76 -166 70 -44 76 -1585 l5 -1380 27 -42 c15 -22 39 -52 54 -65 61 -56
228 -118 364 -134 71 -8 251 -9 315 -1 163 20 317 81 388 154 72 74 67 -29 70
1484 3 1362 3 1365 24 1439 71 245 219 385 419 398 66 5 93 2 145 -16 175 -58
299 -224 336 -450 5 -25 8 -1054 8 -2286 l0 -2240 -27 -51 c-67 -127 -215
-203 -408 -209 -128 -5 -193 7 -286 50 -90 41 -146 92 -181 163 l-28 57 -5
740 c-4 627 -7 733 -18 697 -19 -62 -111 -153 -194 -191 -118 -54 -223 -75
-378 -75 -310 0 -558 111 -618 279 -13 37 -16 -1486 -2 -1555 4 -25 11 -62 14
-82 62 -398 348 -762 746 -951 368 -175 784 -220 1202 -133 102 22 269 78 357
121 39 19 73 35 76 35 2 0 52 32 112 71 95 63 254 207 313 284 124 161 212
367 257 603 4 20 8 1456 10 3191 l3 3153 -57 -6 c-140 -15 -225 -46 -437 -159
-38 -21 -74 -41 -80 -46 -36 -27 -377 -204 -467 -242 -84 -35 -254 -98 -283
-104 -10 -2 -33 -9 -51 -15 -18 -6 -41 -12 -51 -14 -10 -2 -55 -13 -99 -24
-113 -28 -265 -54 -395 -67 -36 -4 -76 -9 -90 -11 -54 -8 -273 -17 -435 -17
-341 0 -599 25 -905 88 -8 2 -33 8 -55 14 -22 5 -68 17 -102 25 -98 24 -290
91 -409 141 -119 51 -224 102 -504 248 -102 52 -205 103 -230 112 -25 9 -54
21 -65 26 -36 16 -137 39 -202 45 l-63 7 2 -2224z"/>
</g>
</svg>
